PathFileType	4	(X/Y/Z)	Patient4_TMGait_0pt6_02_right_13.trc.trc
DataRate	CameraRate	NumFrames	NumMarkers	Units	OrigDataRate	OrigDataStartFrame	OrigNumFrames
81.395348837209	81.395348837209	5	33	mm	81.395348837209	71	       141
Frame#	Time	Sacral			L.Shoulder			Chest			R.Shoulder			Neck			R.ASIS			L.ASIS			R.Thigh.Superior			R.Thigh.Lateral			R.Thigh.Inferior			R.Patella			L.Thigh.Superior			L.Thigh.Lateral			L.Thigh.Inferior			L.Patella			L.Shank.Superior			L.Shank.Lateral			L.Shank.Inferior			R.Shank.Superior			R.Shank.Lateral			R.Shank.Inferior			R.Heel			R.Midfoot.Superior			R.Midfoot.Lateral			R.Toe			L.Heel			L.Midfoot.Lateral			L.Midfoot.Superior			L.Toe			L.Elbow			L.Wrist			R.Elbow			R.Wrist			
		X1	Y1	Z1	X2	Y2	Z2	X3	Y3	Z3	X4	Y4	Z4	X5	Y5	Z5	X6	Y6	Z6	X7	Y7	Z7	X8	Y8	Z8	X9	Y9	Z9	X10	Y10	Z10	X11	Y11	Z11	X12	Y12	Z12	X13	Y13	Z13	X14	Y14	Z14	X15	Y15	Z15	X16	Y16	Z16	X17	Y17	Z17	X18	Y18	Z18	X19	Y19	Z19	X20	Y20	Z20	X21	Y21	Z21	X22	Y22	Z22	X23	Y23	Z23	X24	Y24	Z24	X25	Y25	Z25	X26	Y26	Z26	X27	Y27	Z27	X28	Y28	Z28	X29	Y29	Z29	X30	Y30	Z30	X31	Y31	Z31	X32	Y32	Z32	X33	Y33	Z33	

71	16.250000000000	746.148179545309	1004.133308402793	500.199029768466	909.513844488146	1425.513728528565	303.167048926766	1028.955541450915	1350.874014043954	448.996507770213	971.308019750766	1430.758748833839	629.215154828854	929.331314287563	1485.890000114997	453.260940470236	975.904221013520	934.397342374450	602.041879877026	945.539138306667	947.805653305172	327.615652444908	972.021519612899	721.262140607569	575.794629096079	865.788341871372	628.545316631736	635.601108160568	925.529155102504	562.326063020330	555.134385263067	904.736204305732	476.705146005051	557.450220243217	1022.009288015923	768.421105259297	364.799669426821	972.636811204482	635.312693540901	294.035847341911	1076.171087497750	580.120514663697	357.753785367949	1102.349315661031	514.727032176229	357.943187350433	1087.557627310561	442.299173570589	350.388441759906	1024.421522472144	308.812587528404	306.937564003129	1114.889146702595	215.036385493302	364.865995131443	864.997818869992	394.130813471587	562.809158604717	779.584302203350	300.553899216207	623.018379843999	805.714613287496	202.092239496551	556.830081181432	652.625813187955	45.732497900270	523.005692789053	825.326634421647	96.487727085043	559.931121017751	735.261187732918	37.283412309887	596.924017698957	943.717565384712	39.375731626454	588.978795672778	1035.559994621755	39.988707412684	414.008582432049	1106.353842757573	41.234490623956	331.198238467595	1179.047516224548	116.364587280973	347.714112547993	1310.937566956056	83.155006319689	318.044819506473	777.118586259245	1091.630766256558	214.952359890189	751.813176054853	833.115809142682	225.651339274756	1125.285896357494	1127.228124451041	727.307091504853	1335.359894281662	1209.017229245022	619.238574322338	
72	16.262285714286	747.759839355182	1002.486856106889	498.178886433728	909.208335120732	1424.077469234767	300.950160050859	1028.894911015139	1350.191703851159	446.936429499632	970.620722211096	1429.866904917781	627.069159667536	928.687335242341	1484.699631967378	451.002258498177	977.324092785731	933.005956113327	600.775415492548	947.822418654993	946.243650675705	326.260658344461	972.674521935886	719.549112721105	574.811654972534	865.700556105363	627.263823807514	634.352664313548	925.288354509681	560.636741813378	554.066414229238	903.663924266699	474.525834496740	556.237253910335	1024.390351452649	766.458145223546	363.839174588843	973.404811693590	633.365606249929	294.296581037618	1076.809109159377	578.040101650118	357.952155869595	1101.558294513200	511.672185375845	358.858679579629	1086.209851671161	438.970510699951	351.214421692616	1021.236997763199	306.323487720455	307.906583266376	1109.977783545105	211.418564005265	366.529796870800	862.665901903737	392.408584361442	561.756023572565	775.775352815629	300.224180776974	622.163132918145	800.203700022769	201.285055208991	556.274501356010	645.231402763679	46.044709879218	523.033500968571	818.090660987781	96.491405434895	559.817645165700	727.896628127419	37.434606966710	596.951426051400	936.383274595230	39.281677648087	589.108612703478	1026.707446855382	39.131777436146	415.661213716979	1097.365849762304	39.112958677342	332.563088021820	1172.541604247022	111.423117481350	349.966818190381	1303.553374849815	74.098697328013	319.629274613710	775.752578377659	1090.771860780378	213.254053406510	750.106587580944	832.225317389108	224.595041490875	1125.247188385694	1126.637502706077	725.773438904318	1333.798500136055	1210.826819441833	616.859861228633	
73	16.274571428571	749.350666623380	1000.946951313198	496.093211121129	909.048460265681	1422.615689028148	298.528858812377	1028.927701890583	1349.556262215762	444.763000497121	969.976430725809	1429.115772056506	624.763841706236	928.144619189148	1483.592694496958	448.504482112600	978.745659915616	931.633666884797	599.460370061755	950.142846924817	944.882787395861	324.906599888125	973.602662524869	717.864114180865	573.732392210552	866.020793460629	625.891514039262	632.922960875349	925.592162643536	558.921661134256	552.819545408349	903.262909424178	472.143706637424	554.895395500499	1026.785905939982	764.678881248366	362.975091259176	974.418721855070	631.841775773519	294.311592317446	1077.567322440970	576.303944891445	358.161455489477	1100.819567376657	508.976790876107	359.725670000054	1084.986003660922	436.008758070010	351.875482122823	1018.343433864105	304.223428679092	308.432245472342	1105.191811960606	208.202950267435	367.943032219469	860.775744907415	390.577218021417	560.538667450611	772.310193312604	299.964769447092	621.176038509156	794.914176568427	200.527138243445	555.655634628246	637.860957981866	46.626697041854	523.092262045926	810.945418248291	96.506970949794	559.680045933522	720.568817507178	37.719444707013	596.996623694649	929.087715129490	39.178141320362	589.234819459723	1017.962585328289	38.447200027913	416.834738824918	1088.589266196177	37.443392243283	333.550247862749	1165.965760046350	107.134876606632	352.008700317151	1296.189809499617	66.142912234758	321.175618162262	775.058908896048	1089.558577012648	211.476757130417	749.219248217065	830.995376690591	223.267826882517	1124.378093404915	1125.667349809200	724.517101647638	1331.812210235331	1211.253640062542	614.692647265770	
74	16.286857142857	750.868634838074	999.595742251100	493.974454483342	909.043091611413	1421.194351542652	295.924615418609	1029.060763075906	1349.013904690369	442.491489659806	969.420279968905	1428.582917694533	622.308203305209	927.736659849840	1482.636111465560	445.783272583329	980.121323834219	930.372363234639	598.092816196827	952.418148332844	943.808953725834	323.550973088381	974.800419563544	716.299454376570	572.520889782601	866.806141970430	624.485117596116	631.315002946452	926.512212030221	557.251542816267	551.392187977450	903.649398441897	469.600346291611	553.476817114451	1029.139785962679	763.211605274938	362.212707278389	975.690515354060	630.833061341940	294.045955940230	1078.448086028203	575.009095511165	358.314403080335	1100.193473710409	506.776394011363	360.436278309376	1083.935862029352	433.532518082135	352.308904905014	1015.801654864987	302.617159423414	308.492721537998	1100.617526044176	205.517766484183	369.045702517270	859.404013499045	388.699055112684	559.194653599049	769.258389193254	299.866870610314	620.091573589598	789.917993283886	199.906740500127	555.007682507023	630.550558877330	47.642944075614	523.198142042417	803.954908736912	96.550792026935	559.540437897154	713.301258587994	38.215327187217	597.063454538803	921.832299919917	39.046308498214	589.342177995457	1009.548819151362	37.957470605387	417.578013273209	1080.208416400376	36.253388460478	334.178743255793	1159.405628949551	103.677887830590	353.728397008058	1288.959289064312	59.651221998934	322.538438023353	775.104144558641	1088.033883101913	209.606451188786	749.201640331256	829.467177743835	221.672626620739	1122.656569795187	1124.382309988124	723.527320127681	1329.421695685359	1210.296239592555	612.740495154669	
75	16.299142857143	752.271974986508	998.508883696845	491.847807598046	909.187695927532	1419.884231348086	293.166807492569	1029.292023817159	1348.612033303214	440.138239600075	968.990325111764	1428.340470698283	619.715188768959	927.485379500714	1481.892693119773	442.864851511809	981.403115644828	929.318143817939	596.667344924653	954.574936021198	943.092400094800	322.178629790096	976.263108328033	714.952514101593	571.148499992634	868.121628882756	623.104274422868	629.548384440745	928.131903874410	555.701073342078	549.801867755625	904.946967971316	466.950510620240	552.059194174065	1031.402833563951	762.166189106008	361.529697462956	977.196584481712	630.382736327867	293.490517810097	1079.418563691928	574.196357491080	358.340798102311	1099.696339850095	505.135168994387	360.904484940255	1083.049736830262	431.592877019395	352.484154008086	1013.574666653031	301.552691937705	308.112020823658	1096.238466853995	203.415274170283	369.814551813002	858.651579681549	386.846508640438	557.785474849904	766.704473944287	300.030573048896	618.951852597721	785.304434501658	199.520778824009	554.371869356466	623.354336776013	49.284480786633	523.358872054851	797.196949864412	96.646188742488	559.423975093783	706.124723055393	39.020623496414	597.151740611562	914.612095059342	38.862096187755	589.413277533720	1001.546128292503	37.656594303603	417.958812499050	1072.271298859828	35.509614447347	334.491846845861	1152.863103079143	101.113882712805	355.059278791524	1281.879868084177	54.779822829182	323.621482739995	775.932732635464	1086.261666393743	207.632086840692	750.108671093239	827.698784294932	219.817651098026	1120.062912255232	1122.867813906620	722.781542936874	1326.641899634201	1207.957550079659	611.009684080867	
